# xmcd
#
# Track frame offsets:
#	187
#	22892
#	38152
#	55265
#	85622
#	108310
#	134287
#	150412
#	173117
#	199177
#
# Disc length: 2841 seconds
#
# Revision: 1
# Processed by: cddbd v1.4PL0 Copyright (c) Steve Scherf et al.
# Submitted via: EasyCDDAExtractor 5.0.7
#
DISCID=720b170a
DTITLE=Don Ho - Nhung Tinh Khuc Bat Tu
DYEAR=1900
DGENRE=Vietnamese
TTITLE0=Thuong Mot Nguoi
TTITLE1=Don't Expect Me To Be Your Friend
TTITLE2=Tinh Ca Tuyet Voi
TTITLE3=Uot Mi
TTITLE4=In My Eyes
TTITLE5=Je Ne T'aime Plus
TTITLE6=Unchained Melody
TTITLE7=Venise Pour L' eternite
TTITLE8=Right Here Waiting
TTITLE9=Godfather
EXTD=
EXTT0=
EXTT1=
EXTT2=
EXTT3=
EXTT4=
EXTT5=
EXTT6=
EXTT7=
EXTT8=
EXTT9=
PLAYORDER=
